<?xml version="1.0" standalone="no"?>
<!DOCTYPE svg PUBLIC "-//W3C//DTD SVG 20010904//EN"
 "http://www.w3.org/TR/2001/REC-SVG-20010904/DTD/svg10.dtd">
<svg version="1.0" xmlns="http://www.w3.org/2000/svg"
 width="1085.000000pt" height="377.000000pt" viewBox="0 0 1085.000000 377.000000"
 preserveAspectRatio="xMidYMid meet">

<g transform="translate(0.000000,377.000000) scale(0.100000,-0.100000)"
fill="#000000" stroke="none">
<path d="M209 3763 c-15 -2 -51 -19 -80 -36 -60 -36 -112 -110 -123 -174 -3
-21 -6 -774 -6 -1674 0 -1790 -3 -1690 58 -1775 16 -21 53 -52 83 -69 l54 -30
5230 0 5230 0 54 30 c30 17 67 48 83 69 62 85 59 -17 56 1807 -3 1603 -4 1665
-22 1699 -34 64 -63 95 -117 125 l-54 30 -5210 1 c-2866 1 -5222 -1 -5236 -3z
m1929 -1244 c56 -28 94 -84 95 -141 1 -24 -5 -77 -12 -118 -15 -86 -10 -205
14 -295 33 -126 136 -285 241 -371 54 -43 84 -75 84 -86 0 -4 -340 -8 -755 -8
-692 0 -756 -1 -762 -16 -17 -44 -10 -44 779 -44 706 0 748 -1 748 -17 0 -29
-37 -82 -72 -103 -32 -20 -47 -20 -698 -18 l-665 3 -67 26 c-191 74 -321 200
-391 377 -38 98 -48 240 -23 344 45 193 186 357 375 437 109 46 149 49 620 50
434 1 446 0 489 -20z m1972 -94 c38 -20 57 -74 40 -116 -17 -39 -46 -59 -90
-59 -46 0 -76 21 -90 64 -13 41 -2 75 36 105 31 25 64 27 104 6z m-947 -40
c56 -20 127 -83 127 -112 0 -11 -14 -39 -30 -62 l-31 -42 -37 30 c-101 81
-235 81 -320 -1 -51 -51 -74 -125 -74 -243 0 -142 26 -209 103 -265 75 -54
177 -50 272 10 26 16 49 30 51 30 2 0 15 -18 30 -40 48 -72 31 -111 -66 -156
-57 -26 -73 -28 -173 -28 -135 0 -199 21 -278 94 -88 81 -127 190 -127 359 0
230 102 383 290 438 58 17 200 10 263 -12z m2115 -19 c26 -26 27 -29 30 -176
l3 -150 160 0 159 0 0 174 c0 172 0 174 23 180 58 15 126 -8 146 -50 8 -17 11
-147 11 -424 l0 -400 -90 0 -90 0 0 190 0 190 -160 0 -160 0 -2 -187 -3 -188
-87 -3 -88 -3 -1 413 c-1 227 0 422 1 433 3 29 19 36 73 32 36 -3 56 -11 75
-31z m-1531 -231 c51 -22 72 -43 96 -95 18 -39 21 -69 24 -240 2 -107 8 -213
14 -234 13 -48 4 -56 -69 -56 -46 0 -58 4 -84 30 -27 28 -32 29 -47 16 -49
-44 -186 -61 -254 -32 -67 28 -107 93 -107 172 0 123 91 195 276 217 93 11 94
12 94 39 0 81 -128 100 -251 37 -39 -20 -41 -20 -55 -2 -21 28 -28 81 -13 99
53 64 272 92 376 49z m854 15 c68 -13 121 -48 145 -97 16 -33 20 -69 24 -258
4 -154 9 -227 19 -243 7 -13 10 -27 6 -30 -3 -3 -35 -8 -70 -10 -61 -4 -66 -3
-93 26 -27 29 -28 29 -52 12 -39 -27 -88 -40 -154 -40 -110 1 -178 50 -194
142 -27 151 63 238 270 261 106 12 112 16 87 71 -25 53 -136 58 -230 10 -27
-13 -51 -24 -54 -24 -3 0 -15 20 -26 45 -25 56 -15 76 55 106 84 36 176 46
267 29z m2376 -15 c21 -9 48 -26 62 -38 47 -44 54 -77 61 -312 4 -121 10 -228
15 -239 11 -25 -9 -36 -73 -36 -45 0 -58 4 -81 28 l-28 27 -52 -27 c-43 -23
-66 -28 -122 -28 -82 0 -125 16 -161 58 -37 44 -52 95 -44 155 12 105 104 170
270 190 l96 11 0 32 c0 19 -8 38 -21 50 -32 29 -137 25 -212 -9 l-58 -26 -19
32 c-34 55 -24 84 38 117 77 39 251 47 329 15z m671 10 c58 -18 93 -55 111
-120 6 -24 11 -136 11 -272 l0 -233 -90 0 -90 0 0 220 0 221 -26 26 c-22 22
-32 25 -74 21 -27 -3 -60 -12 -74 -22 l-26 -16 0 -225 0 -225 -90 0 -90 0 0
310 0 310 50 0 c52 0 105 -20 112 -42 3 -8 15 -5 37 11 68 49 152 61 239 36z
m651 -11 c52 -22 81 -53 81 -86 0 -31 -27 -92 -38 -86 -93 49 -127 60 -169 55
-54 -6 -91 -31 -116 -78 -15 -27 -17 -51 -15 -120 4 -96 24 -136 80 -165 45
-24 126 -15 177 19 l41 27 22 -45 c30 -61 19 -90 -47 -124 -43 -22 -63 -26
-145 -26 -77 0 -104 5 -145 23 -68 31 -108 73 -141 146 -24 53 -28 74 -28 156
0 77 5 105 23 145 39 89 121 155 214 175 54 12 160 3 206 -16z m528 1 c46 -19
70 -41 91 -80 13 -24 18 -75 23 -245 4 -118 12 -230 18 -249 6 -19 8 -37 5
-40 -2 -3 -33 -7 -67 -9 -52 -3 -66 0 -83 17 -12 11 -24 26 -27 33 -3 10 -9 9
-23 -4 -35 -31 -92 -48 -159 -48 -75 0 -119 16 -157 56 -35 38 -48 74 -48 135
0 58 15 92 62 136 46 44 98 62 211 76 92 11 97 13 97 35 0 84 -110 106 -238
47 -30 -14 -56 -24 -57 -23 -29 43 -35 57 -35 79 0 43 44 72 143 95 74 16 191
11 244 -11z m1223 -6 c101 -45 151 -129 158 -270 5 -100 -14 -184 -56 -239
-35 -47 -48 -57 -112 -88 -45 -21 -69 -26 -135 -26 -181 1 -290 106 -302 293
-16 222 127 373 337 355 35 -3 85 -14 110 -25z m-5925 -13 c34 -34 37 -77 32
-407 -3 -215 -8 -305 -18 -334 -19 -55 -85 -120 -134 -134 -96 -26 -143 -5
-155 72 l-7 46 39 6 c53 9 78 33 89 85 4 25 8 190 9 368 l0 322 60 0 c51 0 65
-4 85 -24z m1948 -4 c21 -21 22 -32 27 -223 5 -184 7 -202 24 -215 29 -21 105
-18 144 6 l32 20 0 220 0 220 61 0 c54 0 64 -3 90 -29 l29 -29 0 -281 0 -281
-69 0 c-71 0 -101 14 -101 45 0 10 -10 7 -36 -10 -127 -86 -308 -44 -343 80
-6 24 -11 135 -11 274 l0 233 65 -4 c51 -3 70 -9 88 -26z m3050 17 c36 -16 49
-47 108 -251 29 -104 56 -188 59 -188 3 0 25 73 49 163 55 202 66 231 103 262
42 35 148 35 148 -1 0 -35 -224 -743 -245 -776 -47 -72 -119 -108 -212 -108
-123 0 -164 54 -114 148 10 20 13 20 46 6 84 -35 130 -7 170 106 13 36 12 37
-9 33 -47 -9 -63 21 -161 316 -71 213 -92 287 -82 293 18 11 112 10 140 -3z"/>
<path d="M1433 2425 c-39 -17 -73 -68 -73 -111 0 -46 39 -97 85 -112 52 -17
104 -3 139 39 48 57 27 152 -40 184 -39 18 -69 19 -111 0z"/>
<path d="M1088 2115 c-15 -9 -32 -24 -38 -35 -6 -11 -10 -106 -10 -235 l0
-216 26 -24 c28 -26 75 -39 115 -33 26 3 26 7 13 96 l-6 42 301 0 301 0 0 -27
c0 -16 -7 -41 -15 -57 -9 -16 -13 -36 -11 -43 7 -18 80 -17 116 2 58 30 60 40
60 267 l0 208 -29 32 -29 33 -384 2 c-324 2 -387 0 -410 -12z m686 -151 c10
-9 16 -33 16 -60 l0 -44 -300 0 -300 0 0 50 c0 36 5 52 18 59 10 6 121 11 284
11 229 0 269 -2 282 -16z"/>
<path d="M3584 1809 c-86 -20 -121 -93 -73 -153 17 -21 29 -26 67 -26 56 0
109 29 117 63 4 13 5 46 3 73 -3 48 -3 49 -38 51 -19 1 -54 -3 -76 -8z"/>
<path d="M4495 1811 c-70 -17 -95 -45 -95 -105 0 -49 29 -76 79 -76 92 0 121
29 121 121 l0 69 -37 -1 c-21 -1 -51 -4 -68 -8z"/>
<path d="M6813 1808 c-80 -17 -117 -95 -72 -152 17 -21 29 -26 65 -26 51 0 98
21 114 49 5 11 10 47 10 80 l0 61 -37 -1 c-21 -1 -57 -5 -80 -11z"/>
<path d="M8664 1809 c-61 -14 -94 -49 -94 -99 0 -61 28 -84 95 -78 29 3 65 12
79 21 24 16 26 23 26 92 l0 75 -32 -1 c-18 -1 -52 -5 -74 -10z"/>
<path d="M9865 2011 c-73 -30 -105 -160 -69 -280 20 -67 58 -94 124 -88 53 6
84 36 101 100 15 55 7 173 -15 215 -25 49 -91 73 -141 53z"/>
</g>
</svg>
